<?xml version="1.0" encoding="UTF-8"?>
<!DOCTYPE svg PUBLIC "-//W3C//DTD SVG 1.1//EN" "http://www.w3.org/Graphics/SVG/1.1/DTD/svg11.dtd">
<!-- Creator: CorelDRAW X6 -->
<svg xmlns="http://www.w3.org/2000/svg" xml:space="preserve" width="81.1388mm" height="81.1388mm" version="1.1" style="shape-rendering:geometricPrecision; text-rendering:geometricPrecision; image-rendering:optimizeQuality; fill-rule:evenodd; clip-rule:evenodd"
viewBox="0 0 8114 8114"
 xmlns:xlink="http://www.w3.org/1999/xlink">
 <defs>
  <style type="text/css">
   <![CDATA[
    .str0 {stroke:white;stroke-width:176.39}
    .fil1 {fill:none}
    .fil0 {fill:white;fill-opacity:0.709804}
    .fil2 {fill:url(#id0)}
   ]]>
  </style>
  <linearGradient id="id0" gradientUnits="userSpaceOnUse" x1="4056.94" y1="8113.88" x2="4056.94" y2="0">
   <stop offset="0" style="stop-color:aqua"/>
   <stop offset="1" style="stop-color:#336699"/>
  </linearGradient>
 </defs>
 <g id="Capa_x0020_1">
  <metadata id="CorelCorpID_0Corel-Layer"/>
  <g id="_1008085280">
   <g>
    <path class="fil0" d="M4057 277c2088,0 3780,1692 3780,3780 0,2088 -1692,3780 -3780,3780 -2088,0 -3780,-1692 -3780,-3780 0,-2088 1692,-3780 3780,-3780z"/>
    <path id="1" class="fil1 str0" d="M4057 277c2088,0 3780,1692 3780,3780 0,2088 -1692,3780 -3780,3780 -2088,0 -3780,-1692 -3780,-3780 0,-2088 1692,-3780 3780,-3780z"/>
   </g>
   <path class="fil2" d="M4057 0c2241,0 4057,1816 4057,4057 0,2241 -1816,4057 -4057,4057 -2241,0 -4057,-1816 -4057,-4057 0,-2241 1816,-4057 4057,-4057zm0 277c2088,0 3780,1692 3780,3780 0,2088 -1692,3780 -3780,3780 -2088,0 -3780,-1692 -3780,-3780 0,-2088 1692,-3780 3780,-3780z"/>
  </g>
 </g>
</svg>
